<mxfile host="app.diagrams.net" modified="2024-04-04T08:09:06.889Z" agent="Mozilla/5.0 (Windows NT 10.0; Win64; x64) AppleWebKit/537.36 (KHTML, like Gecko) Chrome/122.0.0.0 Safari/537.36" version="24.2.1" etag="RTVeYo56vgN8kkUYd-y8" type="github">
  <diagram name="Page-1" id="7lC1wY_W-eXGNm7Z-748">
    <mxGraphModel>
      <root>
        <mxCell id="0" />
        <mxCell id="1" parent="0" />
      </root>
    </mxGraphModel>
  </diagram>
</mxfile>
